<svg width="67" height="67" viewBox="0 0 67 67" fill="none" xmlns="http://www.w3.org/2000/svg">
<path d="M60.1328 39.4798C63.5991 24.6078 54.3529 9.74159 39.4809 6.27529C24.6088 2.80898 9.74262 12.0552 6.27631 26.9272C2.81 41.7993 12.0562 56.6655 26.9282 60.1318C41.8003 63.5981 56.6665 54.3519 60.1328 39.4798Z" fill="#003D78"/>
<path fill-rule="evenodd" clip-rule="evenodd" d="M33.2098 8.76562C19.7398 8.76562 8.77979 19.7256 8.77979 33.1956C8.77979 46.6656 19.7398 57.6356 33.2198 57.6356C46.6998 57.6356 57.6598 46.6756 57.6598 33.1956C57.6598 19.7156 46.6898 8.76562 33.2098 8.76562Z" fill="#00A1C8"/>
<path fill-rule="evenodd" clip-rule="evenodd" d="M43.7399 50.2278H36.2599C34.8199 50.1878 33.9299 49.5578 33.2099 48.8378C32.4799 49.5578 31.5299 50.2278 30.0399 50.2278H22.6499C21.3799 50.2278 20.4099 49.4578 19.9699 48.1178L17.8299 41.5278C17.2899 39.8678 17.5699 38.8978 18.1099 37.8578C16.9699 37.2778 16.2299 36.5978 15.7299 35.0578L13.5699 28.4078C13.1199 27.2378 13.5199 25.9078 14.5399 25.1678L19.9899 21.2078C20.8799 20.5578 21.7099 20.0278 22.9599 20.0278C23.2399 20.0278 23.5399 20.0578 23.8799 20.1078C24.1299 18.4878 24.8499 17.6778 25.9899 16.8478L31.4799 12.8578C31.9699 12.4678 32.5899 12.2578 33.2099 12.2578C33.7999 12.2578 34.3699 12.4378 34.8499 12.7878L40.5499 16.9378C41.9099 17.9278 42.3399 18.8478 42.5399 20.1078C42.8699 20.0578 43.1699 20.0278 43.4499 20.0278C44.6999 20.0278 45.5399 20.5678 46.4299 21.2178L51.7799 25.1078C52.8199 25.7978 53.2699 27.0978 52.8899 28.2878L52.4999 29.4678L50.7299 34.9078V34.9278C50.1999 36.3478 49.6999 37.1678 48.2999 37.8578C48.9399 39.0778 49.0899 39.9278 48.4699 41.8378L46.4199 48.1378V48.1678C46.0399 49.0978 45.2799 50.2078 43.7199 50.2078L43.7399 50.2278Z" fill="#003D78"/>
<path fill-rule="evenodd" clip-rule="evenodd" d="M33.2098 46.9864C32.2798 47.9864 31.6098 48.9664 30.0398 48.9664H22.6498C21.8498 48.9664 21.3998 48.4364 21.1698 47.7264L19.0298 41.1364C18.5798 39.7464 18.8398 39.1264 19.4198 38.0864L19.8598 37.2864L18.9898 36.8864C17.8998 36.3864 17.3498 35.9664 16.9198 34.6664L14.7498 27.9864C14.4998 27.3464 14.6898 26.5964 15.2698 26.1764L20.7198 22.2164C21.9098 21.3564 22.4998 21.1064 23.8998 21.3864L24.9498 21.5964L25.0798 20.4964C25.2398 19.1664 25.6998 18.6064 26.7098 17.8664L32.2298 13.8564C32.7598 13.4264 33.5298 13.3864 34.0998 13.8064L39.7998 17.9564C40.9298 18.7764 41.1798 19.4164 41.3298 20.6064C41.3698 20.9364 41.4098 21.2664 41.4498 21.5964C41.8398 21.5164 42.2298 21.4364 42.6198 21.3664C43.9198 21.1264 44.5198 21.3864 45.6798 22.2264L51.0498 26.1364C51.6198 26.5064 51.8998 27.2264 51.6798 27.8964L49.5298 34.5064C49.0598 35.8064 48.6998 36.2964 47.5898 36.8164C47.2398 36.9764 46.8898 37.1364 46.5398 37.2964L46.9698 38.0664C47.6398 39.2764 47.8298 39.7264 47.2698 41.4564L45.2298 47.7264C44.9398 48.4564 44.5298 48.9764 43.7098 48.9764H36.3698C34.7898 48.9764 34.1398 48.0164 33.1998 46.9964L33.2098 46.9864Z" fill="white"/>
<path fill-rule="evenodd" clip-rule="evenodd" d="M34.0999 34.1652L40.4999 32.0852C41.1099 31.8852 41.8099 32.0852 42.2099 32.6452C42.2499 32.6952 42.2799 32.7452 42.3099 32.7952C42.5999 33.3252 42.8999 33.8552 43.1899 34.3852L41.2899 35.2652L41.0899 34.8952C41.0899 34.8952 41.0499 34.8352 41.0299 34.8052C40.7799 34.4652 40.3499 34.3352 39.9699 34.4552L35.3899 35.9452L34.7699 36.7952L33.4799 35.0152L34.0999 34.1652ZM34.6499 32.4852L35.2699 33.3352L37.3599 32.6552L36.7399 31.8052V26.9952C36.7399 26.5952 36.9999 26.2252 37.3999 26.0952C37.4299 26.0852 37.4699 26.0752 37.4999 26.0652L37.9099 25.9852L37.6599 23.9052C37.0699 24.0252 36.4799 24.1352 35.8799 24.2552C35.8199 24.2652 35.7699 24.2852 35.7099 24.2952C35.0599 24.5052 34.6499 25.1052 34.6499 25.7452V32.4752V32.4852ZM39.1899 35.1752L37.0999 35.8552L38.6099 37.9352C38.9899 38.4552 39.6699 38.6952 40.3199 38.4852C40.3799 38.4652 40.4299 38.4452 40.4799 38.4252C42.6899 37.4052 44.9099 36.3752 47.1199 35.3552L47.1899 35.3152C47.5699 35.1252 47.8399 34.7952 47.9699 34.4152L50.2499 27.4252L44.2999 23.1052C43.9699 22.8652 43.5599 22.7652 43.1399 22.8352H43.0599V22.8552C42.2299 23.0152 41.3999 23.1852 40.5699 23.3452L40.8199 25.4252L42.8499 25.0252C43.0999 24.9752 43.3599 25.0252 43.5699 25.1652L47.7899 28.2352L46.1799 33.1952C46.0999 33.4252 45.9199 33.6252 45.6899 33.7352L40.7399 36.0252C40.7399 36.0252 40.6799 36.0552 40.6399 36.0652C40.2399 36.1952 39.8099 36.0452 39.5799 35.7252L39.1999 35.2052L39.1899 35.1752ZM33.2099 31.4452L34.2099 31.1252V28.9252L33.2099 29.2452L28.6299 27.7552C28.2499 27.6352 27.9799 27.2752 27.9799 26.8552C27.9799 26.8152 27.9799 26.7852 27.9799 26.7552L28.0299 26.3452L25.9699 25.9352C25.8999 26.5352 25.8299 27.1352 25.7499 27.7352C25.7499 27.7952 25.7499 27.8552 25.7499 27.9152C25.7499 28.5952 26.1899 29.1752 26.8099 29.3752L33.2099 31.4552V31.4452ZM37.1799 30.1552V27.9552L37.7899 27.7552C38.1699 27.6352 38.4399 27.2752 38.4399 26.8552C38.4399 26.8152 38.4399 26.7852 38.4399 26.7552L37.7899 21.3352C37.7599 21.0752 37.6299 20.8552 37.4299 20.6952L33.2099 17.6252L28.9899 20.6952C28.7999 20.8452 28.6599 21.0752 28.6299 21.3352L28.3799 23.3852L27.0199 23.1152L26.3199 22.9752C26.4199 22.1352 26.5199 21.2952 26.6199 20.4552V20.3752C26.6799 19.9552 26.9099 19.5952 27.2399 19.3552L33.1899 15.0352L39.1399 19.3552C39.4699 19.5952 39.6999 19.9552 39.7599 20.3752V20.4552H39.7699C40.0599 22.8752 40.3499 25.2952 40.6399 27.7152C40.6399 27.7752 40.6499 27.8352 40.6499 27.8952C40.6499 28.5752 40.2099 29.1552 39.5899 29.3552L37.1499 30.1452L37.1799 30.1552ZM31.7799 32.4852L27.8299 37.9352C27.4499 38.4552 26.7599 38.6952 26.1199 38.4852C26.0599 38.4652 26.0099 38.4452 25.9599 38.4252C25.4099 38.1752 24.8599 37.9152 24.3099 37.6652L25.3299 35.8352L25.7099 36.0152C25.7099 36.0152 25.7699 36.0452 25.8099 36.0552C26.2099 36.1852 26.6299 36.0352 26.8699 35.7152L29.6999 31.8252V30.7752L31.7899 31.4552V32.5052L31.7799 32.4852ZM22.6299 34.5852L21.6099 36.4152C20.8499 36.0652 20.0799 35.7052 19.3199 35.3552L19.2499 35.3152C18.8699 35.1252 18.5999 34.7952 18.4699 34.4152L16.1899 27.4252L22.1399 23.1052C22.4699 22.8652 22.8799 22.7652 23.2999 22.8352H23.3799V22.8552C25.7699 23.3252 28.1599 23.7952 30.5599 24.2652C30.6199 24.2752 30.6699 24.2952 30.7299 24.3052C31.3799 24.5152 31.7899 25.1152 31.7899 25.7552V28.3152L29.6999 27.6352V26.9952C29.6999 26.5952 29.4399 26.2252 29.0399 26.0952C29.0099 26.0852 28.9699 26.0752 28.9399 26.0652L23.5899 25.0052C23.3399 24.9552 23.0799 25.0052 22.8699 25.1452L18.6499 28.2152L20.2599 33.1752C20.3399 33.4052 20.5199 33.6052 20.7499 33.7152L22.6299 34.5852ZM32.3299 34.1652L31.3299 33.8452L30.0399 35.6252L31.0399 35.9452L33.8699 39.8352C34.0999 40.1552 34.1199 40.6052 33.8699 40.9452C33.8499 40.9752 33.8299 40.9952 33.8099 41.0252L33.5199 41.3352L34.9399 42.8752C35.3499 42.4352 35.7599 41.9852 36.1699 41.5452C36.1699 41.5452 36.2499 41.4552 36.2799 41.4052C36.6799 40.8552 36.6599 40.1252 36.2799 39.6052L32.3199 34.1652H32.3299ZM32.9199 45.0552L31.4999 43.5252L30.0999 45.0452C29.9199 45.2352 29.6799 45.3352 29.4399 45.3452H24.2299L22.6199 40.3852C22.5499 40.1452 22.5799 39.8852 22.6999 39.6652L25.3599 34.8952C25.3599 34.8952 25.3999 34.8352 25.4199 34.8052C25.6699 34.4652 26.0999 34.3352 26.4799 34.4552L27.0899 34.6552L28.3799 32.8752L25.9399 32.0852C25.3299 31.8852 24.6299 32.0852 24.2299 32.6452C24.1999 32.6952 24.1599 32.7452 24.1399 32.7952C22.9499 34.9252 21.7699 37.0552 20.5799 39.1852L20.5399 39.2552C20.3399 39.6252 20.3199 40.0552 20.4399 40.4452L22.7099 47.4352H30.0599C30.4599 47.4352 30.8599 47.2752 31.1599 46.9752L31.2099 46.9152C31.7799 46.2952 32.3599 45.6752 32.9299 45.0552H32.9199ZM32.9399 39.3152L32.5599 39.8352C32.3299 40.1552 32.3099 40.6052 32.5599 40.9452C32.5799 40.9752 32.5999 40.9952 32.6299 41.0252L36.3399 45.0252C36.5199 45.2152 36.7599 45.3152 36.9999 45.3252H42.2099L43.8199 40.3652C43.8899 40.1252 43.8599 39.8652 43.7399 39.6452L42.7299 37.8452L44.6299 36.9652C45.0399 37.7052 45.4499 38.4352 45.8599 39.1752L45.8999 39.2452C46.0999 39.6152 46.1199 40.0452 45.9999 40.4252L43.7299 47.4152H36.3799C35.9799 47.4152 35.5799 47.2552 35.2799 46.9552L35.2299 46.8952C33.5699 45.1052 31.9099 43.3152 30.2499 41.5252C30.2499 41.5252 30.1699 41.4352 30.1399 41.3852C29.7399 40.8352 29.7599 40.1052 30.1399 39.5852L31.6499 37.5152L32.9399 39.2952V39.3152Z" fill="#00A1C8"/>
<path fill-rule="evenodd" clip-rule="evenodd" d="M33.2102 25.0273C33.6302 23.3173 34.8302 22.8973 36.3902 22.5973L36.3202 22.0073C36.3202 22.0073 36.3202 21.9773 36.3202 21.9673C36.3202 21.9073 36.2902 21.8473 36.2602 21.7973C36.2302 21.7473 36.2002 21.7073 36.1502 21.6673L33.2102 19.5273L30.2702 21.6673C30.2702 21.6673 30.1902 21.7473 30.1602 21.7973C30.1302 21.8473 30.1102 21.9073 30.1002 21.9673C30.1002 21.9773 30.1002 21.9873 30.1002 22.0073L30.0302 22.5973C31.5902 22.9073 32.7902 23.3173 33.2102 25.0273ZM25.6702 30.4973C23.9102 30.3773 23.1502 31.3873 22.3802 32.7773L21.8402 32.5273C21.8402 32.5273 21.8202 32.5173 21.8002 32.5073C21.7402 32.4773 21.6902 32.4373 21.6502 32.3973C21.6102 32.3573 21.5802 32.3073 21.5602 32.2473L20.4302 28.7873L23.3702 26.6473C23.3702 26.6473 23.4702 26.5973 23.5302 26.5873C23.5902 26.5773 23.6502 26.5773 23.7102 26.5873C23.7202 26.5873 23.7302 26.5873 23.7502 26.5873L24.3302 26.6973C24.1402 28.2873 24.1702 29.5473 25.6602 30.4773L25.6702 30.4973ZM28.5402 39.3773C27.8802 41.0073 28.6002 42.0473 29.6802 43.2173L29.2802 43.6473C29.2802 43.6473 29.2602 43.6673 29.2502 43.6773C29.2002 43.7273 29.1602 43.7573 29.1002 43.7873C29.0502 43.8073 28.9902 43.8273 28.9302 43.8273H25.2902L24.1702 40.3673C24.1602 40.3073 24.1502 40.2473 24.1602 40.1973C24.1602 40.1373 24.1902 40.0773 24.2102 40.0273C24.2102 40.0173 24.2202 40.0073 24.2302 39.9973L24.5202 39.4773C25.9702 40.1473 27.1802 40.5173 28.5302 39.3773H28.5402ZM37.8802 39.3773C38.5402 41.0073 37.8202 42.0473 36.7402 43.2173L37.1402 43.6473C37.1402 43.6473 37.1602 43.6673 37.1702 43.6773C37.2102 43.7273 37.2702 43.7573 37.3202 43.7873C37.3702 43.8073 37.4302 43.8273 37.4902 43.8273H41.1302L42.2502 40.3673C42.2602 40.3073 42.2702 40.2473 42.2502 40.1973C42.2502 40.1373 42.2302 40.0773 42.2002 40.0273C42.2002 40.0173 42.1902 40.0073 42.1802 39.9973L41.8902 39.4773C40.4402 40.1473 39.2302 40.5173 37.8802 39.3773ZM40.7702 30.4973C42.5302 30.3773 43.2902 31.3873 44.0602 32.7773L44.6002 32.5273C44.6002 32.5273 44.6202 32.5173 44.6302 32.5073C44.6902 32.4773 44.7402 32.4373 44.7802 32.3973C44.8202 32.3573 44.8502 32.3073 44.8702 32.2473L46.0002 28.7873L43.0602 26.6473C43.0602 26.6473 42.9602 26.5973 42.9002 26.5873C42.8402 26.5773 42.7802 26.5773 42.7202 26.5873C42.7102 26.5873 42.7002 26.5873 42.6802 26.5873L42.1002 26.6973C42.2902 28.2873 42.2602 29.5473 40.7702 30.4773V30.4973Z" fill="#003D78"/>
<path fill-rule="evenodd" clip-rule="evenodd" d="M33.2101 59.0455C18.9601 59.0455 7.37012 47.4555 7.37012 33.2055C7.37012 18.9555 18.9601 7.35547 33.2101 7.35547C47.4601 7.35547 59.0501 18.9455 59.0501 33.1955C59.0501 47.4455 47.4601 59.0355 33.2101 59.0355V59.0455ZM33.2101 8.76547C19.7401 8.76547 8.78012 19.7255 8.78012 33.1955C8.78012 46.6655 19.7401 57.6355 33.2201 57.6355C46.7001 57.6355 57.6601 46.6755 57.6601 33.1955C57.6601 19.7155 46.6901 8.76547 33.2101 8.76547Z" fill="white"/>
</svg>
