<svg width="170" height="67" viewBox="0 0 170 67" fill="none" xmlns="http://www.w3.org/2000/svg">
<path d="M60.1328 39.4798C63.5991 24.6078 54.3529 9.74159 39.4809 6.27529C24.6088 2.80898 9.74262 12.0552 6.27631 26.9272C2.81 41.7993 12.0562 56.6655 26.9282 60.1318C41.8003 63.5981 56.6665 54.3519 60.1328 39.4798Z" fill="#003D78"/>
<path fill-rule="evenodd" clip-rule="evenodd" d="M33.2098 8.76562C19.7398 8.76562 8.77979 19.7256 8.77979 33.1956C8.77979 46.6656 19.7398 57.6356 33.2198 57.6356C46.6998 57.6356 57.6598 46.6756 57.6598 33.1956C57.6598 19.7156 46.6898 8.76562 33.2098 8.76562Z" fill="#00A1C8"/>
<path fill-rule="evenodd" clip-rule="evenodd" d="M43.7399 50.2278H36.2599C34.8199 50.1878 33.9299 49.5578 33.2099 48.8378C32.4799 49.5578 31.5299 50.2278 30.0399 50.2278H22.6499C21.3799 50.2278 20.4099 49.4578 19.9699 48.1178L17.8299 41.5278C17.2899 39.8678 17.5699 38.8978 18.1099 37.8578C16.9699 37.2778 16.2299 36.5978 15.7299 35.0578L13.5699 28.4078C13.1199 27.2378 13.5199 25.9078 14.5399 25.1678L19.9899 21.2078C20.8799 20.5578 21.7099 20.0278 22.9599 20.0278C23.2399 20.0278 23.5399 20.0578 23.8799 20.1078C24.1299 18.4878 24.8499 17.6778 25.9899 16.8478L31.4799 12.8578C31.9699 12.4678 32.5899 12.2578 33.2099 12.2578C33.7999 12.2578 34.3699 12.4378 34.8499 12.7878L40.5499 16.9378C41.9099 17.9278 42.3399 18.8478 42.5399 20.1078C42.8699 20.0578 43.1699 20.0278 43.4499 20.0278C44.6999 20.0278 45.5399 20.5678 46.4299 21.2178L51.7799 25.1078C52.8199 25.7978 53.2699 27.0978 52.8899 28.2878L52.4999 29.4678L50.7299 34.9078V34.9278C50.1999 36.3478 49.6999 37.1678 48.2999 37.8578C48.9399 39.0778 49.0899 39.9278 48.4699 41.8378L46.4199 48.1378V48.1678C46.0399 49.0978 45.2799 50.2078 43.7199 50.2078L43.7399 50.2278Z" fill="#003D78"/>
<path fill-rule="evenodd" clip-rule="evenodd" d="M33.2098 46.9864C32.2798 47.9864 31.6098 48.9664 30.0398 48.9664H22.6498C21.8498 48.9664 21.3998 48.4364 21.1698 47.7264L19.0298 41.1364C18.5798 39.7464 18.8398 39.1264 19.4198 38.0864L19.8598 37.2864L18.9898 36.8864C17.8998 36.3864 17.3498 35.9664 16.9198 34.6664L14.7498 27.9864C14.4998 27.3464 14.6898 26.5964 15.2698 26.1764L20.7198 22.2164C21.9098 21.3564 22.4998 21.1064 23.8998 21.3864L24.9498 21.5964L25.0798 20.4964C25.2398 19.1664 25.6998 18.6064 26.7098 17.8664L32.2298 13.8564C32.7598 13.4264 33.5298 13.3864 34.0998 13.8064L39.7998 17.9564C40.9298 18.7764 41.1798 19.4164 41.3298 20.6064C41.3698 20.9364 41.4098 21.2664 41.4498 21.5964C41.8398 21.5164 42.2298 21.4364 42.6198 21.3664C43.9198 21.1264 44.5198 21.3864 45.6798 22.2264L51.0498 26.1364C51.6198 26.5064 51.8998 27.2264 51.6798 27.8964L49.5298 34.5064C49.0598 35.8064 48.6998 36.2964 47.5898 36.8164C47.2398 36.9764 46.8898 37.1364 46.5398 37.2964L46.9698 38.0664C47.6398 39.2764 47.8298 39.7264 47.2698 41.4564L45.2298 47.7264C44.9398 48.4564 44.5298 48.9764 43.7098 48.9764H36.3698C34.7898 48.9764 34.1398 48.0164 33.1998 46.9964L33.2098 46.9864Z" fill="white"/>
<path fill-rule="evenodd" clip-rule="evenodd" d="M34.0999 34.1652L40.4999 32.0852C41.1099 31.8852 41.8099 32.0852 42.2099 32.6452C42.2499 32.6952 42.2799 32.7452 42.3099 32.7952C42.5999 33.3252 42.8999 33.8552 43.1899 34.3852L41.2899 35.2652L41.0899 34.8952C41.0899 34.8952 41.0499 34.8352 41.0299 34.8052C40.7799 34.4652 40.3499 34.3352 39.9699 34.4552L35.3899 35.9452L34.7699 36.7952L33.4799 35.0152L34.0999 34.1652ZM34.6499 32.4852L35.2699 33.3352L37.3599 32.6552L36.7399 31.8052V26.9952C36.7399 26.5952 36.9999 26.2252 37.3999 26.0952C37.4299 26.0852 37.4699 26.0752 37.4999 26.0652L37.9099 25.9852L37.6599 23.9052C37.0699 24.0252 36.4799 24.1352 35.8799 24.2552C35.8199 24.2652 35.7699 24.2852 35.7099 24.2952C35.0599 24.5052 34.6499 25.1052 34.6499 25.7452V32.4752V32.4852ZM39.1899 35.1752L37.0999 35.8552L38.6099 37.9352C38.9899 38.4552 39.6699 38.6952 40.3199 38.4852C40.3799 38.4652 40.4299 38.4452 40.4799 38.4252C42.6899 37.4052 44.9099 36.3752 47.1199 35.3552L47.1899 35.3152C47.5699 35.1252 47.8399 34.7952 47.9699 34.4152L50.2499 27.4252L44.2999 23.1052C43.9699 22.8652 43.5599 22.7652 43.1399 22.8352H43.0599V22.8552C42.2299 23.0152 41.3999 23.1852 40.5699 23.3452L40.8199 25.4252L42.8499 25.0252C43.0999 24.9752 43.3599 25.0252 43.5699 25.1652L47.7899 28.2352L46.1799 33.1952C46.0999 33.4252 45.9199 33.6252 45.6899 33.7352L40.7399 36.0252C40.7399 36.0252 40.6799 36.0552 40.6399 36.0652C40.2399 36.1952 39.8099 36.0452 39.5799 35.7252L39.1999 35.2052L39.1899 35.1752ZM33.2099 31.4452L34.2099 31.1252V28.9252L33.2099 29.2452L28.6299 27.7552C28.2499 27.6352 27.9799 27.2752 27.9799 26.8552C27.9799 26.8152 27.9799 26.7852 27.9799 26.7552L28.0299 26.3452L25.9699 25.9352C25.8999 26.5352 25.8299 27.1352 25.7499 27.7352C25.7499 27.7952 25.7499 27.8552 25.7499 27.9152C25.7499 28.5952 26.1899 29.1752 26.8099 29.3752L33.2099 31.4552V31.4452ZM37.1799 30.1552V27.9552L37.7899 27.7552C38.1699 27.6352 38.4399 27.2752 38.4399 26.8552C38.4399 26.8152 38.4399 26.7852 38.4399 26.7552L37.7899 21.3352C37.7599 21.0752 37.6299 20.8552 37.4299 20.6952L33.2099 17.6252L28.9899 20.6952C28.7999 20.8452 28.6599 21.0752 28.6299 21.3352L28.3799 23.3852L27.0199 23.1152L26.3199 22.9752C26.4199 22.1352 26.5199 21.2952 26.6199 20.4552V20.3752C26.6799 19.9552 26.9099 19.5952 27.2399 19.3552L33.1899 15.0352L39.1399 19.3552C39.4699 19.5952 39.6999 19.9552 39.7599 20.3752V20.4552H39.7699C40.0599 22.8752 40.3499 25.2952 40.6399 27.7152C40.6399 27.7752 40.6499 27.8352 40.6499 27.8952C40.6499 28.5752 40.2099 29.1552 39.5899 29.3552L37.1499 30.1452L37.1799 30.1552ZM31.7799 32.4852L27.8299 37.9352C27.4499 38.4552 26.7599 38.6952 26.1199 38.4852C26.0599 38.4652 26.0099 38.4452 25.9599 38.4252C25.4099 38.1752 24.8599 37.9152 24.3099 37.6652L25.3299 35.8352L25.7099 36.0152C25.7099 36.0152 25.7699 36.0452 25.8099 36.0552C26.2099 36.1852 26.6299 36.0352 26.8699 35.7152L29.6999 31.8252V30.7752L31.7899 31.4552V32.5052L31.7799 32.4852ZM22.6299 34.5852L21.6099 36.4152C20.8499 36.0652 20.0799 35.7052 19.3199 35.3552L19.2499 35.3152C18.8699 35.1252 18.5999 34.7952 18.4699 34.4152L16.1899 27.4252L22.1399 23.1052C22.4699 22.8652 22.8799 22.7652 23.2999 22.8352H23.3799V22.8552C25.7699 23.3252 28.1599 23.7952 30.5599 24.2652C30.6199 24.2752 30.6699 24.2952 30.7299 24.3052C31.3799 24.5152 31.7899 25.1152 31.7899 25.7552V28.3152L29.6999 27.6352V26.9952C29.6999 26.5952 29.4399 26.2252 29.0399 26.0952C29.0099 26.0852 28.9699 26.0752 28.9399 26.0652L23.5899 25.0052C23.3399 24.9552 23.0799 25.0052 22.8699 25.1452L18.6499 28.2152L20.2599 33.1752C20.3399 33.4052 20.5199 33.6052 20.7499 33.7152L22.6299 34.5852ZM32.3299 34.1652L31.3299 33.8452L30.0399 35.6252L31.0399 35.9452L33.8699 39.8352C34.0999 40.1552 34.1199 40.6052 33.8699 40.9452C33.8499 40.9752 33.8299 40.9952 33.8099 41.0252L33.5199 41.3352L34.9399 42.8752C35.3499 42.4352 35.7599 41.9852 36.1699 41.5452C36.1699 41.5452 36.2499 41.4552 36.2799 41.4052C36.6799 40.8552 36.6599 40.1252 36.2799 39.6052L32.3199 34.1652H32.3299ZM32.9199 45.0552L31.4999 43.5252L30.0999 45.0452C29.9199 45.2352 29.6799 45.3352 29.4399 45.3452H24.2299L22.6199 40.3852C22.5499 40.1452 22.5799 39.8852 22.6999 39.6652L25.3599 34.8952C25.3599 34.8952 25.3999 34.8352 25.4199 34.8052C25.6699 34.4652 26.0999 34.3352 26.4799 34.4552L27.0899 34.6552L28.3799 32.8752L25.9399 32.0852C25.3299 31.8852 24.6299 32.0852 24.2299 32.6452C24.1999 32.6952 24.1599 32.7452 24.1399 32.7952C22.9499 34.9252 21.7699 37.0552 20.5799 39.1852L20.5399 39.2552C20.3399 39.6252 20.3199 40.0552 20.4399 40.4452L22.7099 47.4352H30.0599C30.4599 47.4352 30.8599 47.2752 31.1599 46.9752L31.2099 46.9152C31.7799 46.2952 32.3599 45.6752 32.9299 45.0552H32.9199ZM32.9399 39.3152L32.5599 39.8352C32.3299 40.1552 32.3099 40.6052 32.5599 40.9452C32.5799 40.9752 32.5999 40.9952 32.6299 41.0252L36.3399 45.0252C36.5199 45.2152 36.7599 45.3152 36.9999 45.3252H42.2099L43.8199 40.3652C43.8899 40.1252 43.8599 39.8652 43.7399 39.6452L42.7299 37.8452L44.6299 36.9652C45.0399 37.7052 45.4499 38.4352 45.8599 39.1752L45.8999 39.2452C46.0999 39.6152 46.1199 40.0452 45.9999 40.4252L43.7299 47.4152H36.3799C35.9799 47.4152 35.5799 47.2552 35.2799 46.9552L35.2299 46.8952C33.5699 45.1052 31.9099 43.3152 30.2499 41.5252C30.2499 41.5252 30.1699 41.4352 30.1399 41.3852C29.7399 40.8352 29.7599 40.1052 30.1399 39.5852L31.6499 37.5152L32.9399 39.2952V39.3152Z" fill="#00A1C8"/>
<path fill-rule="evenodd" clip-rule="evenodd" d="M33.2102 25.0273C33.6302 23.3173 34.8302 22.8973 36.3902 22.5973L36.3202 22.0073C36.3202 22.0073 36.3202 21.9773 36.3202 21.9673C36.3202 21.9073 36.2902 21.8473 36.2602 21.7973C36.2302 21.7473 36.2002 21.7073 36.1502 21.6673L33.2102 19.5273L30.2702 21.6673C30.2702 21.6673 30.1902 21.7473 30.1602 21.7973C30.1302 21.8473 30.1102 21.9073 30.1002 21.9673C30.1002 21.9773 30.1002 21.9873 30.1002 22.0073L30.0302 22.5973C31.5902 22.9073 32.7902 23.3173 33.2102 25.0273ZM25.6702 30.4973C23.9102 30.3773 23.1502 31.3873 22.3802 32.7773L21.8402 32.5273C21.8402 32.5273 21.8202 32.5173 21.8002 32.5073C21.7402 32.4773 21.6902 32.4373 21.6502 32.3973C21.6102 32.3573 21.5802 32.3073 21.5602 32.2473L20.4302 28.7873L23.3702 26.6473C23.3702 26.6473 23.4702 26.5973 23.5302 26.5873C23.5902 26.5773 23.6502 26.5773 23.7102 26.5873C23.7202 26.5873 23.7302 26.5873 23.7502 26.5873L24.3302 26.6973C24.1402 28.2873 24.1702 29.5473 25.6602 30.4773L25.6702 30.4973ZM28.5402 39.3773C27.8802 41.0073 28.6002 42.0473 29.6802 43.2173L29.2802 43.6473C29.2802 43.6473 29.2602 43.6673 29.2502 43.6773C29.2002 43.7273 29.1602 43.7573 29.1002 43.7873C29.0502 43.8073 28.9902 43.8273 28.9302 43.8273H25.2902L24.1702 40.3673C24.1602 40.3073 24.1502 40.2473 24.1602 40.1973C24.1602 40.1373 24.1902 40.0773 24.2102 40.0273C24.2102 40.0173 24.2202 40.0073 24.2302 39.9973L24.5202 39.4773C25.9702 40.1473 27.1802 40.5173 28.5302 39.3773H28.5402ZM37.8802 39.3773C38.5402 41.0073 37.8202 42.0473 36.7402 43.2173L37.1402 43.6473C37.1402 43.6473 37.1602 43.6673 37.1702 43.6773C37.2102 43.7273 37.2702 43.7573 37.3202 43.7873C37.3702 43.8073 37.4302 43.8273 37.4902 43.8273H41.1302L42.2502 40.3673C42.2602 40.3073 42.2702 40.2473 42.2502 40.1973C42.2502 40.1373 42.2302 40.0773 42.2002 40.0273C42.2002 40.0173 42.1902 40.0073 42.1802 39.9973L41.8902 39.4773C40.4402 40.1473 39.2302 40.5173 37.8802 39.3773ZM40.7702 30.4973C42.5302 30.3773 43.2902 31.3873 44.0602 32.7773L44.6002 32.5273C44.6002 32.5273 44.6202 32.5173 44.6302 32.5073C44.6902 32.4773 44.7402 32.4373 44.7802 32.3973C44.8202 32.3573 44.8502 32.3073 44.8702 32.2473L46.0002 28.7873L43.0602 26.6473C43.0602 26.6473 42.9602 26.5973 42.9002 26.5873C42.8402 26.5773 42.7802 26.5773 42.7202 26.5873C42.7102 26.5873 42.7002 26.5873 42.6802 26.5873L42.1002 26.6973C42.2902 28.2873 42.2602 29.5473 40.7702 30.4773V30.4973Z" fill="#003D78"/>
<path fill-rule="evenodd" clip-rule="evenodd" d="M33.2101 59.0455C18.9601 59.0455 7.37012 47.4555 7.37012 33.2055C7.37012 18.9555 18.9601 7.35547 33.2101 7.35547C47.4601 7.35547 59.0501 18.9455 59.0501 33.1955C59.0501 47.4455 47.4601 59.0355 33.2101 59.0355V59.0455ZM33.2101 8.76547C19.7401 8.76547 8.78012 19.7255 8.78012 33.1955C8.78012 46.6655 19.7401 57.6355 33.2201 57.6355C46.7001 57.6355 57.6601 46.6755 57.6601 33.1955C57.6601 19.7155 46.6901 8.76547 33.2101 8.76547Z" fill="white"/>
<path fill-rule="evenodd" clip-rule="evenodd" d="M71.7701 21.3953C71.7901 22.2453 71.9301 22.5353 72.1501 22.6053C72.3401 22.6753 72.5401 22.6853 72.7201 22.6853C72.8401 22.6853 72.9101 22.7053 72.9101 22.7753C72.9101 22.8653 72.8101 22.8853 72.6601 22.8853C71.9501 22.8853 71.5101 22.8553 71.3101 22.8553C71.2101 22.8553 70.7001 22.8853 70.1301 22.8853C69.9901 22.8853 69.8901 22.8753 69.8901 22.7753C69.8901 22.7053 69.9501 22.6853 70.0601 22.6853C70.2001 22.6853 70.4001 22.6753 70.5501 22.6353C70.8301 22.5453 70.8801 22.2353 70.8901 21.2853L70.9901 14.8153C70.9901 14.5953 71.0201 14.4453 71.1301 14.4453C71.2501 14.4453 71.3501 14.5853 71.5301 14.7853C71.6601 14.9253 73.3201 16.7053 74.9201 18.2953C75.6601 19.0353 77.1401 20.6153 77.3201 20.7853H77.3701L77.2601 15.8853C77.2601 15.2153 77.1501 15.0153 76.8901 14.9053C76.7301 14.8353 76.4601 14.8353 76.3101 14.8353C76.1801 14.8353 76.1401 14.8053 76.1401 14.7353C76.1401 14.6453 76.2601 14.6353 76.4201 14.6353C76.9901 14.6353 77.5101 14.6653 77.7401 14.6653C77.8601 14.6653 78.2801 14.6353 78.8101 14.6353C78.9501 14.6353 79.0601 14.6453 79.0601 14.7353C79.0601 14.8053 79.0001 14.8353 78.8601 14.8353C78.7501 14.8353 78.6601 14.8353 78.5301 14.8653C78.2201 14.9553 78.1401 15.1853 78.1301 15.7953L78.0101 22.6853C78.0101 22.9253 77.9701 23.0253 77.8701 23.0253C77.7501 23.0253 77.6201 22.9053 77.5001 22.7853C76.8101 22.1353 75.4101 20.6953 74.2801 19.5753C73.0901 18.3953 71.8801 17.0353 71.6801 16.8253H71.6501L71.7701 21.4153V21.3953Z" fill="#003D78"/>
<path fill-rule="evenodd" clip-rule="evenodd" d="M82.9201 17.7952C82.9201 16.1352 82.9201 15.8252 82.9001 15.4752C82.8801 15.1052 82.7901 14.9252 82.4301 14.8552C82.3401 14.8352 82.1601 14.8252 82.0001 14.8252C81.8801 14.8252 81.8101 14.8052 81.8101 14.7252C81.8101 14.6452 81.8901 14.6252 82.0501 14.6252C82.3501 14.6252 82.6601 14.6352 82.9301 14.6352C83.2101 14.6452 83.4701 14.6552 83.6201 14.6552C83.9701 14.6552 86.1401 14.6552 86.3501 14.6452C86.5601 14.6252 86.7301 14.6052 86.8201 14.5752C86.8701 14.5652 86.9401 14.5352 86.9901 14.5352C87.0401 14.5352 87.0501 14.5752 87.0501 14.6352C87.0501 14.7152 87.0001 14.8452 86.9601 15.3452C86.9501 15.4552 86.9301 15.9352 86.9101 16.0652C86.9001 16.1152 86.8801 16.1852 86.8001 16.1852C86.7201 16.1852 86.7001 16.1352 86.7001 16.0352C86.7001 15.9552 86.6901 15.7752 86.6301 15.6452C86.5501 15.4452 86.4501 15.3152 85.9001 15.2552C85.7101 15.2352 84.5701 15.2152 84.3501 15.2152C84.3001 15.2152 84.2701 15.2452 84.2701 15.3252V18.0852C84.2701 18.1652 84.2801 18.2052 84.3501 18.2052C84.5901 18.2052 85.8501 18.2052 86.1001 18.1852C86.3601 18.1652 86.5301 18.1352 86.6201 18.0252C86.7001 17.9352 86.7401 17.8852 86.7901 17.8852C86.8301 17.8852 86.8701 17.9052 86.8701 17.9752C86.8701 18.0452 86.8301 18.2152 86.7801 18.7752C86.7701 18.9952 86.7401 19.4252 86.7401 19.5052C86.7401 19.5952 86.7401 19.7152 86.6401 19.7152C86.5601 19.7152 86.5401 19.6752 86.5401 19.6152C86.5301 19.5052 86.5301 19.3652 86.5001 19.2252C86.4501 19.0052 86.2901 18.8452 85.8901 18.7952C85.6801 18.7752 84.6001 18.7652 84.3401 18.7652C84.2901 18.7652 84.2801 18.8052 84.2801 18.8752V19.7352C84.2801 20.1052 84.2701 21.1152 84.2801 21.4252C84.3001 22.1752 84.4801 22.3452 85.5901 22.3452C85.8701 22.3452 86.3301 22.3452 86.6201 22.2152C86.9001 22.0852 87.0301 21.8552 87.1101 21.4052C87.1301 21.2852 87.1501 21.2452 87.2301 21.2452C87.3201 21.2452 87.3201 21.3352 87.3201 21.4452C87.3201 21.6952 87.2301 22.4352 87.1801 22.6552C87.1001 22.9352 87.0101 22.9352 86.5901 22.9352C85.7701 22.9352 85.1701 22.9152 84.7001 22.9052C84.2301 22.8852 83.8901 22.8752 83.5601 22.8752C83.4401 22.8752 83.2001 22.8752 82.9401 22.8852C82.6901 22.8852 82.4101 22.9052 82.1901 22.9052C82.0501 22.9052 81.9701 22.8752 81.9701 22.7952C81.9701 22.7452 82.0101 22.7052 82.1401 22.7052C82.3001 22.7052 82.4301 22.6852 82.5301 22.6652C82.7501 22.6252 82.8001 22.3852 82.8501 22.0652C82.9001 21.6052 82.9001 20.7452 82.9001 19.7352V17.8152L82.9201 17.7952Z" fill="#003D78"/>
<path fill-rule="evenodd" clip-rule="evenodd" d="M91.3998 21.8466C90.3298 20.9066 90.0498 19.6866 90.0498 18.6266C90.0498 17.8866 90.2798 16.5966 91.3298 15.6366C92.1198 14.9166 93.1498 14.4766 94.7798 14.4766C95.4598 14.4766 95.8598 14.5166 96.3598 14.5866C96.7698 14.6366 97.1198 14.7366 97.4498 14.7666C97.5698 14.7766 97.6098 14.8366 97.6098 14.8966C97.6098 14.9866 97.5798 15.1166 97.5598 15.4966C97.5398 15.8566 97.5498 16.4566 97.5298 16.6766C97.5198 16.8366 97.4998 16.9266 97.3998 16.9266C97.3098 16.9266 97.2898 16.8366 97.2898 16.6866C97.2798 16.3466 97.1398 15.9666 96.8598 15.6766C96.4998 15.2966 95.6498 14.9966 94.6398 14.9966C93.6898 14.9966 93.0698 15.2366 92.5898 15.6766C91.7898 16.4066 91.5898 17.4466 91.5898 18.5066C91.5898 21.1066 93.5698 22.3966 95.0298 22.3966C95.9998 22.3966 96.5898 22.2866 97.0298 21.7866C97.2198 21.5766 97.3598 21.2666 97.3998 21.0666C97.4298 20.8966 97.4498 20.8466 97.5398 20.8466C97.6198 20.8466 97.6398 20.9266 97.6398 21.0066C97.6398 21.1366 97.5098 22.0866 97.3998 22.4566C97.3498 22.6466 97.2998 22.6966 97.1198 22.7766C96.6798 22.9466 95.8498 23.0266 95.1498 23.0266C93.6498 23.0266 92.3998 22.6966 91.4098 21.8366L91.3998 21.8466Z" fill="#003D78"/>
<path fill-rule="evenodd" clip-rule="evenodd" d="M101.8 14.6784C101.83 14.4884 101.9 14.3984 101.99 14.3984C102.08 14.3984 102.14 14.4584 102.28 14.7384L105.26 20.8984L108.23 14.6584C108.32 14.4884 108.37 14.3984 108.47 14.3984C108.57 14.3984 108.63 14.5084 108.67 14.7384L109.66 21.4884C109.76 22.1784 109.87 22.4884 110.2 22.5884C110.52 22.6884 110.73 22.6984 110.88 22.6984C110.98 22.6984 111.05 22.7084 111.05 22.7784C111.05 22.8684 110.92 22.8984 110.77 22.8984C110.5 22.8984 108.99 22.8684 108.55 22.8284C108.3 22.8084 108.23 22.7784 108.23 22.7084C108.23 22.6484 108.27 22.6184 108.35 22.5884C108.41 22.5684 108.45 22.4284 108.4 22.1184L107.75 17.3184H107.71L105.33 22.2784C105.08 22.7884 105.02 22.8884 104.93 22.8884C104.84 22.8884 104.72 22.6684 104.55 22.3384C104.29 21.8384 103.42 20.1684 103.29 19.8584C103.19 19.6284 102.54 18.2584 102.15 17.4384H102.11L101.54 21.7884C101.52 21.9884 101.51 22.1284 101.51 22.2984C101.51 22.5084 101.65 22.6084 101.84 22.6484C102.04 22.6884 102.19 22.7084 102.3 22.7084C102.39 22.7084 102.46 22.7284 102.46 22.7884C102.46 22.8884 102.36 22.9084 102.2 22.9084C101.74 22.9084 101.25 22.8784 101.05 22.8784C100.84 22.8784 100.32 22.9084 99.97 22.9084C99.86 22.9084 99.77 22.8884 99.77 22.7884C99.77 22.7384 99.83 22.7084 99.94 22.7084C100.03 22.7084 100.1 22.7084 100.27 22.6784C100.58 22.6084 100.66 22.1884 100.72 21.8184L101.8 14.6984V14.6784Z" fill="#003D78"/>
<path fill-rule="evenodd" clip-rule="evenodd" d="M114.2 17.7952C114.2 16.1352 114.2 15.8252 114.18 15.4752C114.16 15.1052 114.07 14.9252 113.71 14.8552C113.62 14.8352 113.44 14.8252 113.28 14.8252C113.16 14.8252 113.09 14.8052 113.09 14.7252C113.09 14.6452 113.17 14.6252 113.33 14.6252C113.63 14.6252 113.94 14.6352 114.21 14.6352C114.49 14.6452 114.75 14.6552 114.9 14.6552C115.25 14.6552 117.42 14.6552 117.63 14.6452C117.84 14.6252 118.01 14.6052 118.1 14.5752C118.15 14.5652 118.22 14.5352 118.27 14.5352C118.32 14.5352 118.34 14.5752 118.34 14.6352C118.34 14.7152 118.29 14.8452 118.25 15.3452C118.24 15.4552 118.22 15.9352 118.2 16.0652C118.19 16.1152 118.17 16.1852 118.09 16.1852C118.01 16.1852 117.99 16.1352 117.99 16.0352C117.99 15.9552 117.98 15.7752 117.93 15.6452C117.85 15.4452 117.74 15.3152 117.2 15.2552C117.01 15.2352 115.87 15.2152 115.65 15.2152C115.6 15.2152 115.57 15.2452 115.57 15.3252V18.0852C115.57 18.1652 115.58 18.2052 115.65 18.2052C115.89 18.2052 117.15 18.2052 117.4 18.1852C117.66 18.1652 117.83 18.1352 117.92 18.0252C118 17.9352 118.04 17.8852 118.09 17.8852C118.13 17.8852 118.17 17.9052 118.17 17.9752C118.17 18.0452 118.13 18.2152 118.08 18.7752C118.07 18.9952 118.04 19.4252 118.04 19.5052C118.04 19.5952 118.04 19.7152 117.94 19.7152C117.86 19.7152 117.84 19.6752 117.84 19.6152C117.83 19.5052 117.83 19.3652 117.8 19.2252C117.75 19.0052 117.59 18.8452 117.19 18.7952C116.98 18.7752 115.9 18.7652 115.64 18.7652C115.59 18.7652 115.58 18.8052 115.58 18.8752V19.7352C115.58 20.1052 115.57 21.1152 115.58 21.4252C115.6 22.1752 115.78 22.3452 116.89 22.3452C117.17 22.3452 117.63 22.3452 117.92 22.2152C118.2 22.0852 118.33 21.8552 118.41 21.4052C118.43 21.2852 118.45 21.2452 118.53 21.2452C118.62 21.2452 118.62 21.3352 118.62 21.4452C118.62 21.6952 118.53 22.4352 118.48 22.6552C118.4 22.9352 118.31 22.9352 117.89 22.9352C117.07 22.9352 116.47 22.9152 116 22.9052C115.53 22.8852 115.19 22.8752 114.86 22.8752C114.74 22.8752 114.5 22.8752 114.24 22.8852C113.99 22.8852 113.71 22.9052 113.49 22.9052C113.35 22.9052 113.27 22.8752 113.27 22.7952C113.27 22.7452 113.31 22.7052 113.45 22.7052C113.61 22.7052 113.74 22.6852 113.84 22.6652C114.06 22.6252 114.11 22.3852 114.16 22.0652C114.21 21.6052 114.21 20.7452 114.21 19.7352V17.8152L114.2 17.7952Z" fill="#003D78"/>
<path fill-rule="evenodd" clip-rule="evenodd" d="M123.98 15.2348L122.35 15.2748C121.72 15.2948 121.45 15.3548 121.29 15.5948C121.18 15.7548 121.13 15.8948 121.1 15.9748C121.08 16.0648 121.05 16.1048 120.98 16.1048C120.9 16.1048 120.88 16.0448 120.88 15.9348C120.88 15.7648 121.09 14.7648 121.11 14.6748C121.14 14.5348 121.18 14.4648 121.24 14.4648C121.33 14.4648 121.44 14.5748 121.71 14.5948C122.03 14.6248 122.44 14.6448 122.8 14.6448H127.12C127.47 14.6448 127.71 14.6148 127.87 14.5948C128.03 14.5648 128.12 14.5348 128.16 14.5348C128.24 14.5348 128.25 14.6048 128.25 14.7648C128.25 14.9948 128.22 15.7448 128.22 16.0348C128.21 16.1448 128.19 16.2148 128.12 16.2148C128.03 16.2148 128.01 16.1548 128 15.9948V15.8748C127.97 15.5948 127.67 15.2848 126.7 15.2648L125.32 15.2348V19.7148C125.32 20.7148 125.32 21.5848 125.37 22.0548C125.4 22.3648 125.47 22.6048 125.8 22.6448C125.95 22.6648 126.19 22.6848 126.36 22.6848C126.48 22.6848 126.54 22.7148 126.54 22.7748C126.54 22.8548 126.45 22.8848 126.33 22.8848C125.61 22.8848 124.92 22.8548 124.62 22.8548C124.37 22.8548 123.68 22.8848 123.24 22.8848C123.1 22.8848 123.02 22.8548 123.02 22.7748C123.02 22.7248 123.06 22.6848 123.19 22.6848C123.35 22.6848 123.48 22.6648 123.58 22.6448C123.8 22.6048 123.86 22.3648 123.9 22.0448C123.95 21.5848 123.95 20.7248 123.95 19.7148V15.2348H123.98Z" fill="#003D78"/>
<path fill-rule="evenodd" clip-rule="evenodd" d="M133.15 15.2348L131.52 15.2748C130.89 15.2948 130.63 15.3548 130.46 15.5948C130.35 15.7548 130.3 15.8948 130.27 15.9748C130.25 16.0648 130.22 16.1048 130.15 16.1048C130.07 16.1048 130.05 16.0448 130.05 15.9348C130.05 15.7648 130.26 14.7648 130.28 14.6748C130.31 14.5348 130.35 14.4648 130.41 14.4648C130.5 14.4648 130.61 14.5748 130.88 14.5948C131.2 14.6248 131.61 14.6448 131.97 14.6448H136.29C136.64 14.6448 136.88 14.6148 137.04 14.5948C137.2 14.5648 137.29 14.5348 137.34 14.5348C137.42 14.5348 137.43 14.6048 137.43 14.7648C137.43 14.9948 137.4 15.7448 137.4 16.0348C137.39 16.1448 137.37 16.2148 137.3 16.2148C137.21 16.2148 137.19 16.1548 137.18 15.9948V15.8748C137.15 15.5948 136.85 15.2848 135.88 15.2648L134.5 15.2348V19.7148C134.5 20.7148 134.5 21.5848 134.55 22.0548C134.58 22.3648 134.65 22.6048 134.98 22.6448C135.13 22.6648 135.37 22.6848 135.54 22.6848C135.66 22.6848 135.71 22.7148 135.71 22.7748C135.71 22.8548 135.62 22.8848 135.5 22.8848C134.78 22.8848 134.09 22.8548 133.79 22.8548C133.54 22.8548 132.85 22.8848 132.41 22.8848C132.27 22.8848 132.19 22.8548 132.19 22.7748C132.19 22.7248 132.23 22.6848 132.37 22.6848C132.53 22.6848 132.66 22.6648 132.76 22.6448C132.98 22.6048 133.04 22.3648 133.08 22.0448C133.13 21.5848 133.13 20.7248 133.13 19.7148V15.2348H133.15Z" fill="#003D78"/>
<path fill-rule="evenodd" clip-rule="evenodd" d="M140.87 17.7969C140.87 16.1369 140.87 15.8269 140.85 15.4769C140.83 15.1069 140.72 14.9169 140.48 14.8669C140.36 14.8369 140.22 14.8269 140.09 14.8269C139.98 14.8269 139.92 14.8069 139.92 14.7169C139.92 14.6469 140.01 14.6269 140.18 14.6269C140.59 14.6269 141.28 14.6569 141.6 14.6569C141.87 14.6569 142.52 14.6269 142.93 14.6269C143.07 14.6269 143.16 14.6469 143.16 14.7169C143.16 14.8069 143.1 14.8269 142.99 14.8269C142.88 14.8269 142.79 14.8369 142.66 14.8569C142.36 14.9069 142.28 15.0969 142.26 15.4769C142.24 15.8269 142.24 16.1269 142.24 17.7969V19.7169C142.24 20.7769 142.24 21.6369 142.28 22.1069C142.31 22.4069 142.39 22.5969 142.72 22.6369C142.87 22.6569 143.11 22.6769 143.28 22.6769C143.4 22.6769 143.45 22.7069 143.45 22.7669C143.45 22.8469 143.36 22.8769 143.24 22.8769C142.52 22.8769 141.83 22.8469 141.54 22.8469C141.29 22.8469 140.6 22.8769 140.16 22.8769C140.02 22.8769 139.94 22.8469 139.94 22.7669C139.94 22.7169 139.98 22.6769 140.12 22.6769C140.28 22.6769 140.42 22.6569 140.51 22.6369C140.73 22.5969 140.79 22.4069 140.83 22.0869C140.88 21.6269 140.88 20.7669 140.88 19.7069V17.7869L140.87 17.7969ZM140.93 13.1769C140.93 12.9069 141.11 12.5469 141.54 12.5469C141.89 12.5469 142.16 12.7769 142.16 13.1369C142.16 13.4969 141.91 13.7869 141.54 13.7869C141.1 13.7869 140.93 13.4469 140.93 13.1769Z" fill="#003D78"/>
<path fill-rule="evenodd" clip-rule="evenodd" d="M147.83 21.3953C147.85 22.2453 147.99 22.5353 148.21 22.6053C148.4 22.6753 148.6 22.6853 148.78 22.6853C148.9 22.6853 148.97 22.7053 148.97 22.7753C148.97 22.8653 148.87 22.8853 148.72 22.8853C148.01 22.8853 147.57 22.8553 147.37 22.8553C147.27 22.8553 146.76 22.8853 146.19 22.8853C146.05 22.8853 145.95 22.8753 145.95 22.7753C145.95 22.7053 146.02 22.6853 146.13 22.6853C146.27 22.6853 146.47 22.6753 146.62 22.6353C146.9 22.5453 146.95 22.2353 146.96 21.2853L147.06 14.8153C147.06 14.5953 147.09 14.4453 147.2 14.4453C147.32 14.4453 147.42 14.5853 147.6 14.7853C147.73 14.9253 149.39 16.7053 150.98 18.2953C151.72 19.0353 153.2 20.6153 153.38 20.7853H153.43L153.32 15.8853C153.31 15.2153 153.21 15.0153 152.95 14.9053C152.79 14.8353 152.52 14.8353 152.37 14.8353C152.24 14.8353 152.2 14.8053 152.2 14.7353C152.2 14.6453 152.32 14.6353 152.48 14.6353C153.05 14.6353 153.57 14.6653 153.8 14.6653C153.92 14.6653 154.33 14.6353 154.87 14.6353C155.01 14.6353 155.12 14.6453 155.12 14.7353C155.12 14.8053 155.06 14.8353 154.92 14.8353C154.81 14.8353 154.72 14.8353 154.59 14.8653C154.28 14.9553 154.2 15.1853 154.19 15.7953L154.07 22.6853C154.07 22.9253 154.03 23.0253 153.93 23.0253C153.81 23.0253 153.68 22.9053 153.56 22.7853C152.87 22.1353 151.47 20.6953 150.34 19.5753C149.15 18.3953 147.94 17.0353 147.74 16.8253H147.71L147.83 21.4153V21.3953Z" fill="#003D78"/>
<path fill-rule="evenodd" clip-rule="evenodd" d="M71.1598 31.7461C71.1598 30.0861 71.1598 29.7761 71.1398 29.4261C71.1198 29.0561 71.0298 28.8761 70.6698 28.8061C70.5798 28.7861 70.3998 28.7761 70.2398 28.7761C70.1198 28.7761 70.0498 28.7561 70.0498 28.6761C70.0498 28.5961 70.1298 28.5761 70.2898 28.5761C70.5798 28.5761 70.8998 28.5861 71.1698 28.5861C71.4498 28.5961 71.6998 28.6061 71.8598 28.6061C72.2098 28.6061 74.3798 28.6061 74.5898 28.5961C74.7998 28.5761 74.9698 28.5561 75.0598 28.5361C75.1098 28.5261 75.1798 28.4961 75.2398 28.4961C75.2998 28.4961 75.2998 28.5361 75.2998 28.5961C75.2998 28.6761 75.2498 28.8061 75.2098 29.3061C75.1998 29.4161 75.1798 29.8961 75.1598 30.0261C75.1598 30.0761 75.1298 30.1461 75.0498 30.1461C74.9698 30.1461 74.9498 30.0961 74.9498 29.9961C74.9498 29.9161 74.9398 29.7361 74.8798 29.6061C74.7998 29.4061 74.6898 29.2761 74.1498 29.2161C73.9598 29.1961 72.8198 29.1761 72.5998 29.1761C72.5498 29.1761 72.5198 29.2061 72.5198 29.2861V32.0461C72.5198 32.1261 72.5298 32.1661 72.5998 32.1661C72.8398 32.1661 74.0998 32.1661 74.3498 32.1461C74.6098 32.1261 74.7798 32.0961 74.8698 31.9861C74.9498 31.8961 74.9898 31.8461 75.0398 31.8461C75.0798 31.8461 75.1198 31.8661 75.1198 31.9361C75.1198 32.0061 75.0798 32.1761 75.0298 32.7361C75.0198 32.9561 74.9898 33.3961 74.9898 33.4661C74.9898 33.5561 74.9898 33.6761 74.8898 33.6761C74.8098 33.6761 74.7898 33.6361 74.7898 33.5761C74.7798 33.4661 74.7798 33.3261 74.7498 33.1861C74.6998 32.9661 74.5398 32.8061 74.1398 32.7561C73.9298 32.7361 72.8498 32.7261 72.5898 32.7261C72.5398 32.7261 72.5198 32.7661 72.5198 32.8361V33.6961C72.5198 34.0661 72.5098 35.0761 72.5198 35.3861C72.5398 36.1361 72.7198 36.3061 73.8298 36.3061C74.1098 36.3061 74.5698 36.3061 74.8598 36.1761C75.1398 36.0461 75.2698 35.8161 75.3498 35.3661C75.3698 35.2461 75.3898 35.2061 75.4698 35.2061C75.5598 35.2061 75.5598 35.2961 75.5598 35.4061C75.5598 35.6561 75.4698 36.3961 75.4198 36.6161C75.3398 36.8961 75.2398 36.8961 74.8298 36.8961C74.0098 36.8961 73.4098 36.8761 72.9398 36.8661C72.4698 36.8461 72.1298 36.8361 71.7998 36.8361C71.6798 36.8361 71.4398 36.8361 71.1798 36.8461C70.9298 36.8461 70.6398 36.8661 70.4298 36.8661C70.2898 36.8661 70.2098 36.8361 70.2098 36.7561C70.2098 36.7061 70.2498 36.6661 70.3798 36.6661C70.5398 36.6661 70.6798 36.6461 70.7698 36.6261C70.9898 36.5861 71.0398 36.3461 71.0898 36.0261C71.1398 35.5661 71.1398 34.7061 71.1398 33.6961V31.7761L71.1598 31.7461Z" fill="#003D78"/>
<path fill-rule="evenodd" clip-rule="evenodd" d="M79.4801 31.7481C79.4801 30.0881 79.4801 29.7781 79.4601 29.4281C79.4401 29.0581 79.3501 28.8781 78.9901 28.8081C78.9001 28.7881 78.7201 28.7781 78.5601 28.7781C78.4401 28.7781 78.3701 28.7581 78.3701 28.6781C78.3701 28.5981 78.4501 28.5781 78.6101 28.5781C79.1901 28.5781 79.8801 28.6081 80.1101 28.6081C80.4801 28.6081 81.3101 28.5781 81.6501 28.5781C82.3401 28.5781 83.0701 28.6481 83.6601 29.0481C83.9701 29.2581 84.4001 29.8081 84.4001 30.5481C84.4001 31.3581 84.0601 32.0981 82.9601 32.9981C83.9301 34.2181 84.6901 35.1881 85.3301 35.8681C85.9401 36.4981 86.3901 36.5781 86.5501 36.6081C86.6701 36.6281 86.7701 36.6381 86.8601 36.6381C86.9501 36.6381 86.9901 36.6681 86.9901 36.7281C86.9901 36.8181 86.9101 36.8381 86.7801 36.8381H85.7401C85.1301 36.8381 84.8601 36.7781 84.5701 36.6281C84.1001 36.3781 83.6901 35.8681 83.0701 35.0281C82.6301 34.4281 82.1301 33.6881 81.9901 33.5181C81.9401 33.4481 81.8701 33.4381 81.7901 33.4381L80.8401 33.4181C80.7901 33.4181 80.7501 33.4381 80.7501 33.5081V33.6581C80.7501 34.6781 80.7501 35.5381 80.8001 35.9981C80.8301 36.3181 80.9001 36.5581 81.2301 36.5981C81.3901 36.6181 81.6301 36.6381 81.7601 36.6381C81.8501 36.6381 81.8901 36.6681 81.8901 36.7281C81.8901 36.8081 81.8101 36.8381 81.6701 36.8381C81.0401 36.8381 80.2301 36.8081 80.0701 36.8081C79.8601 36.8081 79.1701 36.8381 78.7401 36.8381C78.6001 36.8381 78.5201 36.8081 78.5201 36.7281C78.5201 36.6781 78.5601 36.6381 78.7001 36.6381C78.8601 36.6381 79.0001 36.6181 79.0901 36.5981C79.3101 36.5581 79.3601 36.3181 79.4101 35.9981C79.4601 35.5381 79.4601 34.6781 79.4601 33.6681V31.7481H79.4801ZM80.7701 32.6081C80.7701 32.7281 80.7901 32.7681 80.8701 32.8081C81.1001 32.8881 81.4301 32.9181 81.7001 32.9181C82.1401 32.9181 82.2801 32.8781 82.4701 32.7381C82.8001 32.4981 83.1101 31.9981 83.1101 31.0981C83.1101 29.5481 82.0801 29.0981 81.4401 29.0981C81.1701 29.0981 80.9701 29.0981 80.8601 29.1381C80.7801 29.1581 80.7601 29.2081 80.7601 29.2881V32.6081H80.7701Z" fill="#003D78"/>
<path fill-rule="evenodd" clip-rule="evenodd" d="M89.1398 31.7481C89.1398 30.0881 89.1398 29.7781 89.1198 29.4281C89.0998 29.0581 89.0098 28.8781 88.6498 28.8081C88.5598 28.7881 88.3798 28.7781 88.2198 28.7781C88.0998 28.7781 88.0298 28.7581 88.0298 28.6781C88.0298 28.5981 88.1098 28.5781 88.2698 28.5781C88.8498 28.5781 89.5398 28.6081 89.7498 28.6081C90.2898 28.6081 90.7098 28.5781 91.0798 28.5781C93.0598 28.5781 93.4098 29.6381 93.4098 30.2181C93.4098 31.1181 92.8998 31.6481 92.2998 32.1281C93.1898 32.4381 94.2898 33.2081 94.2898 34.4881C94.2898 35.6581 93.3798 36.8681 91.3698 36.8681C91.2398 36.8681 90.9198 36.8481 90.6098 36.8381C90.2798 36.8181 89.9498 36.8081 89.7898 36.8081C89.6698 36.8081 89.4298 36.8081 89.1698 36.8181C88.9198 36.8181 88.6298 36.8381 88.4198 36.8381C88.2798 36.8381 88.1998 36.8081 88.1998 36.7281C88.1998 36.6781 88.2398 36.6381 88.3698 36.6381C88.5298 36.6381 88.6698 36.6181 88.7598 36.5981C88.9798 36.5581 89.0298 36.3181 89.0798 35.9981C89.1298 35.5381 89.1298 34.6781 89.1298 33.6681V31.7481H89.1398ZM90.4498 31.9381C90.4498 32.0281 90.4798 32.0481 90.5298 32.0581C90.6298 32.0781 90.7898 32.0881 91.0398 32.0881C91.3998 32.0881 91.6398 32.0481 91.8298 31.8781C92.1098 31.6481 92.2798 31.2581 92.2798 30.7181C92.2798 29.9881 91.8498 29.0281 90.9198 29.0281C90.7698 29.0281 90.6698 29.0281 90.5598 29.0481C90.4798 29.0681 90.4598 29.1181 90.4598 29.2381V31.9381H90.4498ZM91.8898 32.8081C91.6598 32.6481 91.4098 32.5681 90.9798 32.5481C90.7798 32.5381 90.6798 32.5381 90.5098 32.5381C90.4698 32.5381 90.4398 32.5581 90.4398 32.6181V35.2081C90.4398 35.9281 90.4698 36.1181 90.8198 36.2581C91.1098 36.3781 91.3598 36.3881 91.6198 36.3881C92.1098 36.3881 92.9398 36.1281 92.9398 34.9881C92.9398 34.3081 92.7098 33.3981 91.8798 32.8181L91.8898 32.8081Z" fill="#003D78"/>
<path fill-rule="evenodd" clip-rule="evenodd" d="M98.7701 33.9877C98.7201 33.9877 98.6901 34.0077 98.6701 34.0777L98.0801 35.6377C97.9701 35.9077 97.9201 36.1777 97.9201 36.3077C97.9201 36.5077 98.0201 36.6477 98.3601 36.6477H98.5201C98.6501 36.6477 98.6801 36.6677 98.6801 36.7377C98.6801 36.8277 98.6101 36.8477 98.4901 36.8477C98.1401 36.8477 97.6701 36.8177 97.3301 36.8177C97.2101 36.8177 96.6101 36.8477 96.0401 36.8477C95.9001 36.8477 95.8301 36.8277 95.8301 36.7377C95.8301 36.6677 95.8701 36.6477 95.9601 36.6477C96.0601 36.6477 96.2101 36.6377 96.3001 36.6277C96.8001 36.5577 97.0101 36.1877 97.2301 35.6477L99.9701 28.7877C100.1 28.4677 100.17 28.3477 100.28 28.3477C100.38 28.3477 100.44 28.4477 100.55 28.6977C100.81 29.2977 102.56 33.7577 103.26 35.4177C103.67 36.3977 103.99 36.5577 104.22 36.6077C104.38 36.6377 104.55 36.6477 104.68 36.6477C104.77 36.6477 104.82 36.6577 104.82 36.7377C104.82 36.8277 104.72 36.8477 104.32 36.8477C103.92 36.8477 103.13 36.8477 102.26 36.8277C102.06 36.8177 101.93 36.8177 101.93 36.7377C101.93 36.6677 101.97 36.6477 102.08 36.6377C102.16 36.6177 102.23 36.5177 102.18 36.3877L101.31 34.0677C101.29 34.0177 101.26 33.9877 101.2 33.9877H98.7701ZM101 33.4377C101.05 33.4377 101.06 33.4077 101.05 33.3677L100.07 30.6677C100.07 30.6677 100.05 30.5677 100.02 30.5677C99.9901 30.5677 99.9701 30.6277 99.9501 30.6677L98.9501 33.3577C98.9501 33.3577 98.9501 33.4377 98.9901 33.4377H101Z" fill="#003D78"/>
<path fill-rule="evenodd" clip-rule="evenodd" d="M108.73 32.2281H108.78C109.15 31.8281 110.74 30.1981 111.06 29.8281C111.37 29.4681 111.61 29.1981 111.61 29.0081C111.61 28.8881 111.57 28.8081 111.46 28.7881C111.36 28.7681 111.32 28.7481 111.32 28.6781C111.32 28.5981 111.37 28.5781 111.49 28.5781C111.72 28.5781 112.32 28.6081 112.61 28.6081C112.95 28.6081 113.55 28.5781 113.89 28.5781C114 28.5781 114.08 28.5981 114.08 28.6781C114.08 28.7581 114.03 28.7781 113.92 28.7781C113.77 28.7781 113.49 28.8181 113.29 28.8981C112.95 29.0281 112.58 29.2581 112.11 29.7181C111.77 30.0481 110.12 31.6781 109.75 32.0781C110.14 32.5881 112.28 34.8981 112.71 35.2981C113.19 35.7581 113.68 36.2481 114.27 36.4781C114.6 36.6081 114.82 36.6381 114.95 36.6381C115.03 36.6381 115.09 36.6581 115.09 36.7281C115.09 36.8081 115.04 36.8381 114.83 36.8381H113.88C113.55 36.8381 113.36 36.8381 113.13 36.8181C112.54 36.7681 112.25 36.5281 111.78 36.1081C111.3 35.6781 109.15 33.1581 108.92 32.8381L108.8 32.6781H108.75V33.6681C108.75 34.6681 108.75 35.5381 108.78 36.0081C108.8 36.3181 108.9 36.5581 109.17 36.5981C109.32 36.6181 109.56 36.6381 109.7 36.6381C109.79 36.6381 109.84 36.6681 109.84 36.7281C109.84 36.8081 109.75 36.8381 109.63 36.8381C109.02 36.8381 108.33 36.8081 108.06 36.8081C107.81 36.8081 107.12 36.8381 106.68 36.8381C106.54 36.8381 106.46 36.8081 106.46 36.7281C106.46 36.6681 106.5 36.6381 106.63 36.6381C106.79 36.6381 106.93 36.6181 107.02 36.5981C107.24 36.5581 107.29 36.3181 107.34 35.9981C107.39 35.5381 107.39 34.6781 107.39 33.6681V31.7481C107.39 30.0881 107.39 29.7781 107.37 29.4281C107.35 29.0581 107.26 28.8781 106.9 28.8081C106.81 28.7881 106.63 28.7781 106.48 28.7781C106.36 28.7781 106.29 28.7581 106.29 28.6781C106.29 28.5981 106.37 28.5781 106.53 28.5781C107.11 28.5781 107.8 28.6081 108.06 28.6081C108.32 28.6081 109.01 28.5781 109.38 28.5781C109.53 28.5781 109.61 28.5981 109.61 28.6781C109.61 28.7581 109.54 28.7781 109.46 28.7781C109.35 28.7781 109.29 28.7881 109.15 28.8081C108.85 28.8581 108.77 29.0481 108.75 29.4281C108.73 29.7781 108.73 30.0881 108.73 31.7481V32.2281Z" fill="#003D78"/>
<path fill-rule="evenodd" clip-rule="evenodd" d="M118.62 33.9877C118.57 33.9877 118.54 34.0077 118.52 34.0777L117.93 35.6377C117.82 35.9077 117.77 36.1777 117.77 36.3077C117.77 36.5077 117.87 36.6477 118.21 36.6477H118.37C118.5 36.6477 118.53 36.6677 118.53 36.7377C118.53 36.8277 118.46 36.8477 118.34 36.8477C117.99 36.8477 117.52 36.8177 117.18 36.8177C117.06 36.8177 116.46 36.8477 115.89 36.8477C115.75 36.8477 115.68 36.8277 115.68 36.7377C115.68 36.6677 115.72 36.6477 115.81 36.6477C115.91 36.6477 116.06 36.6377 116.15 36.6277C116.65 36.5577 116.86 36.1877 117.08 35.6477L119.82 28.7877C119.95 28.4677 120.02 28.3477 120.13 28.3477C120.23 28.3477 120.29 28.4477 120.4 28.6977C120.66 29.2977 122.41 33.7577 123.11 35.4177C123.52 36.3977 123.84 36.5577 124.07 36.6077C124.23 36.6377 124.4 36.6477 124.53 36.6477C124.62 36.6477 124.67 36.6577 124.67 36.7377C124.67 36.8277 124.57 36.8477 124.17 36.8477C123.77 36.8477 122.98 36.8477 122.11 36.8277C121.91 36.8177 121.78 36.8177 121.78 36.7377C121.78 36.6677 121.82 36.6477 121.93 36.6377C122.01 36.6177 122.08 36.5177 122.03 36.3877L121.16 34.0677C121.14 34.0177 121.11 33.9877 121.05 33.9877H118.61H118.62ZM120.85 33.4377C120.9 33.4377 120.92 33.4077 120.9 33.3677L119.92 30.6677C119.92 30.6677 119.9 30.5677 119.87 30.5677C119.84 30.5677 119.82 30.6277 119.8 30.6677L118.8 33.3577C118.8 33.3577 118.8 33.4377 118.84 33.4377H120.85Z" fill="#003D78"/>
<path fill-rule="evenodd" clip-rule="evenodd" d="M128.02 35.3484C128.04 36.1984 128.18 36.4884 128.4 36.5584C128.59 36.6184 128.79 36.6384 128.97 36.6384C129.09 36.6384 129.16 36.6584 129.16 36.7284C129.16 36.8184 129.06 36.8384 128.91 36.8384C128.2 36.8384 127.76 36.8084 127.56 36.8084C127.46 36.8084 126.95 36.8384 126.38 36.8384C126.24 36.8384 126.14 36.8284 126.14 36.7284C126.14 36.6584 126.21 36.6384 126.32 36.6384C126.46 36.6384 126.66 36.6284 126.81 36.5784C127.09 36.4884 127.14 36.1784 127.15 35.2284L127.25 28.7684C127.25 28.5484 127.28 28.3984 127.39 28.3984C127.51 28.3984 127.61 28.5384 127.79 28.7384C127.92 28.8784 129.58 30.6584 131.17 32.2484C131.91 32.9884 133.39 34.5684 133.57 34.7384H133.62L133.51 29.8384C133.5 29.1684 133.4 28.9684 133.14 28.8584C132.98 28.7884 132.71 28.7884 132.56 28.7884C132.43 28.7884 132.39 28.7584 132.39 28.6884C132.39 28.5984 132.51 28.5884 132.67 28.5884C133.24 28.5884 133.76 28.6184 133.99 28.6184C134.11 28.6184 134.52 28.5884 135.06 28.5884C135.2 28.5884 135.31 28.5984 135.31 28.6884C135.31 28.7584 135.25 28.7884 135.11 28.7884C135 28.7884 134.91 28.7884 134.78 28.8184C134.47 28.9084 134.39 29.1384 134.38 29.7484L134.26 36.6384C134.26 36.8784 134.22 36.9784 134.12 36.9784C134 36.9784 133.87 36.8584 133.75 36.7384C133.06 36.0884 131.66 34.6484 130.53 33.5284C129.34 32.3484 128.13 30.9884 127.93 30.7784H127.9L128.02 35.3684V35.3484Z" fill="#003D78"/>
<path fill-rule="evenodd" clip-rule="evenodd" d="M70.6901 45.698C70.6901 44.038 70.6901 43.728 70.6701 43.388C70.6501 43.018 70.5601 42.838 70.2001 42.768C70.1101 42.748 69.9301 42.738 69.7701 42.738C69.6501 42.738 69.5801 42.718 69.5801 42.638C69.5801 42.558 69.6601 42.538 69.8201 42.538C70.4001 42.538 71.0901 42.568 71.4201 42.568C71.6801 42.568 72.3701 42.538 72.7601 42.538C72.9201 42.538 73.0001 42.558 73.0001 42.638C73.0001 42.718 72.9301 42.738 72.8201 42.738C72.7001 42.738 72.6401 42.748 72.5001 42.768C72.2001 42.818 72.1201 43.008 72.1001 43.388C72.0801 43.738 72.0801 44.038 72.0801 45.698V47.228C72.0801 48.808 72.4001 49.478 72.9301 49.918C73.4201 50.318 73.9201 50.368 74.2901 50.368C74.7701 50.368 75.3601 50.218 75.8001 49.778C76.4001 49.178 76.4301 48.198 76.4301 47.068V45.708C76.4301 44.048 76.4301 43.738 76.4101 43.398C76.3901 43.028 76.3001 42.848 75.9401 42.778C75.8501 42.758 75.6701 42.748 75.5501 42.748C75.4301 42.748 75.3701 42.728 75.3701 42.648C75.3701 42.568 75.4501 42.548 75.6001 42.548C76.1601 42.548 76.8501 42.578 76.8601 42.578C76.9901 42.578 77.6801 42.548 78.1001 42.548C78.2501 42.548 78.3301 42.568 78.3301 42.648C78.3301 42.728 78.2601 42.748 78.1301 42.748C78.0101 42.748 77.9501 42.758 77.8101 42.778C77.5201 42.828 77.4301 43.018 77.4101 43.398C77.3901 43.748 77.3901 44.048 77.3901 45.708V46.878C77.3901 48.088 77.2701 49.378 76.3501 50.168C75.5801 50.838 74.7901 50.958 74.0801 50.958C73.5001 50.958 72.4501 50.928 71.6601 50.208C71.1001 49.708 70.6901 48.898 70.6901 47.318V45.728V45.698ZM72.5801 41.178C72.5801 40.968 72.7301 40.678 73.0801 40.678C73.3601 40.678 73.5901 40.848 73.5901 41.148C73.5901 41.448 73.3801 41.698 73.0701 41.698C72.7201 41.698 72.5801 41.418 72.5801 41.188V41.178ZM74.8801 41.178C74.8801 40.958 75.0301 40.668 75.3801 40.668C75.6601 40.668 75.8901 40.838 75.8901 41.148C75.8901 41.458 75.6801 41.698 75.3701 41.698C75.0201 41.698 74.8801 41.418 74.8801 41.188V41.178Z" fill="#003D78"/>
<path fill-rule="evenodd" clip-rule="evenodd" d="M82.4899 49.3055C82.5099 50.1555 82.6499 50.4455 82.8699 50.5155C83.0599 50.5755 83.2599 50.5955 83.4399 50.5955C83.5599 50.5955 83.6299 50.6155 83.6299 50.6855C83.6299 50.7755 83.5299 50.7955 83.3799 50.7955C82.6699 50.7955 82.2299 50.7655 82.0299 50.7655C81.9299 50.7655 81.4199 50.7955 80.8499 50.7955C80.7099 50.7955 80.6099 50.7855 80.6099 50.6855C80.6099 50.6155 80.6699 50.5955 80.7799 50.5955C80.9199 50.5955 81.1199 50.5855 81.2699 50.5455C81.5499 50.4555 81.5999 50.1455 81.6099 49.1955L81.7099 42.7255C81.7099 42.5055 81.7399 42.3555 81.8499 42.3555C81.9699 42.3555 82.0699 42.4955 82.2499 42.6955C82.3799 42.8355 84.0399 44.6155 85.6399 46.1955C86.3799 46.9355 87.8599 48.5155 88.0399 48.6855H88.0899L87.9799 43.7855C87.9699 43.1155 87.8699 42.9155 87.6099 42.8055C87.4499 42.7355 87.1799 42.7355 87.0299 42.7355C86.8999 42.7355 86.8599 42.7055 86.8599 42.6355C86.8599 42.5455 86.9799 42.5355 87.1399 42.5355C87.7099 42.5355 88.2299 42.5655 88.4599 42.5655C88.5799 42.5655 88.9899 42.5355 89.5299 42.5355C89.6699 42.5355 89.7799 42.5455 89.7799 42.6355C89.7799 42.7055 89.7099 42.7355 89.5799 42.7355C89.4699 42.7355 89.3799 42.7355 89.2499 42.7655C88.9399 42.8555 88.8599 43.0855 88.8499 43.6955L88.7299 50.5855C88.7299 50.8255 88.6899 50.9255 88.5899 50.9255C88.4699 50.9255 88.3399 50.8055 88.2199 50.6855C87.5299 50.0355 86.1299 48.5955 84.9999 47.4755C83.8099 46.2955 82.5999 44.9355 82.3999 44.7255H82.3699L82.4899 49.3155V49.3055Z" fill="#003D78"/>
<path fill-rule="evenodd" clip-rule="evenodd" d="M93.6399 45.697C93.6399 44.037 93.6399 43.727 93.6199 43.387C93.5999 43.017 93.4899 42.827 93.2499 42.777C93.1299 42.747 92.9899 42.737 92.8599 42.737C92.7499 42.737 92.6899 42.717 92.6899 42.627C92.6899 42.557 92.7799 42.537 92.9499 42.537C93.3599 42.537 94.0499 42.567 94.3699 42.567C94.6399 42.567 95.2899 42.537 95.6999 42.537C95.8399 42.537 95.9299 42.557 95.9299 42.627C95.9299 42.717 95.8599 42.737 95.7499 42.737C95.6399 42.737 95.5499 42.747 95.4199 42.767C95.1199 42.817 95.0399 43.007 95.0199 43.387C94.9999 43.737 94.9999 44.037 94.9999 45.697V47.617C94.9999 48.677 94.9999 49.537 95.0399 50.007C95.0699 50.307 95.1499 50.497 95.4799 50.537C95.6299 50.557 95.8699 50.577 96.0399 50.577C96.1599 50.577 96.2199 50.607 96.2199 50.667C96.2199 50.747 96.1299 50.777 96.0099 50.777C95.2899 50.777 94.5999 50.747 94.3099 50.747C94.0599 50.747 93.3699 50.777 92.9299 50.777C92.7899 50.777 92.7099 50.747 92.7099 50.667C92.7099 50.617 92.7499 50.577 92.8799 50.577C93.0399 50.577 93.1699 50.557 93.2699 50.537C93.4899 50.497 93.5499 50.307 93.5899 49.987C93.6399 49.527 93.6399 48.667 93.6399 47.607V45.687V45.697ZM93.7099 41.087C93.7099 40.817 93.8799 40.457 94.3199 40.457C94.6699 40.457 94.9399 40.687 94.9399 41.047C94.9399 41.407 94.6899 41.707 94.3199 41.707C93.8799 41.707 93.7099 41.367 93.7099 41.097V41.087Z" fill="#003D78"/>
<path fill-rule="evenodd" clip-rule="evenodd" d="M98.9901 43.6052C98.7401 43.0052 98.5501 42.8852 98.1601 42.7752C98.0001 42.7352 97.8201 42.7352 97.7301 42.7352C97.6301 42.7352 97.6001 42.7052 97.6001 42.6352C97.6001 42.5452 97.7201 42.5352 97.8801 42.5352C98.4601 42.5352 99.0801 42.5652 99.4601 42.5652C99.7301 42.5652 100.26 42.5352 100.8 42.5352C100.93 42.5352 101.05 42.5552 101.05 42.6352C101.05 42.7152 100.98 42.7352 100.89 42.7352C100.71 42.7352 100.55 42.7452 100.46 42.8152C100.38 42.8752 100.35 42.9452 100.35 43.0452C100.35 43.1852 100.45 43.4952 100.6 43.8852L102.48 48.8452H102.52C102.99 47.6452 104.41 44.1252 104.67 43.4052C104.72 43.2652 104.77 43.1052 104.77 43.0052C104.77 42.9152 104.73 42.8352 104.63 42.7952C104.5 42.7552 104.34 42.7452 104.19 42.7452C104.09 42.7452 104 42.7452 104 42.6552C104 42.5652 104.1 42.5452 104.31 42.5452C104.86 42.5452 105.31 42.5752 105.46 42.5752C105.65 42.5752 106.16 42.5452 106.49 42.5452C106.63 42.5452 106.72 42.5652 106.72 42.6452C106.72 42.7252 106.65 42.7452 106.55 42.7452C106.45 42.7452 106.21 42.7452 106.02 42.8752C105.88 42.9752 105.71 43.1552 105.42 43.8552C104.99 44.8852 104.7 45.4752 104.11 46.8152C103.41 48.4152 102.9 49.5952 102.66 50.1452C102.38 50.7752 102.31 50.9552 102.16 50.9552C102.02 50.9552 101.95 50.8052 101.75 50.2852L99.0001 43.6152L98.9901 43.6052Z" fill="#003D78"/>
<path fill-rule="evenodd" clip-rule="evenodd" d="M109.32 45.6953C109.32 44.0353 109.32 43.7253 109.3 43.3853C109.28 43.0153 109.19 42.8353 108.83 42.7653C108.74 42.7453 108.56 42.7353 108.4 42.7353C108.28 42.7353 108.21 42.7153 108.21 42.6353C108.21 42.5553 108.29 42.5353 108.45 42.5353C108.75 42.5353 109.06 42.5453 109.33 42.5453C109.61 42.5553 109.86 42.5653 110.02 42.5653C110.37 42.5653 112.54 42.5653 112.75 42.5553C112.96 42.5353 113.13 42.5153 113.22 42.4853C113.27 42.4753 113.34 42.4453 113.39 42.4453C113.44 42.4453 113.45 42.4853 113.45 42.5453C113.45 42.6253 113.4 42.7553 113.36 43.2553C113.35 43.3653 113.33 43.8453 113.31 43.9753C113.3 44.0253 113.28 44.0953 113.2 44.0953C113.12 44.0953 113.1 44.0453 113.1 43.9453C113.1 43.8653 113.09 43.6853 113.03 43.5553C112.95 43.3553 112.85 43.2253 112.3 43.1653C112.11 43.1453 110.97 43.1253 110.75 43.1253C110.7 43.1253 110.67 43.1553 110.67 43.2353V45.9953C110.67 46.0753 110.68 46.1153 110.75 46.1153C110.99 46.1153 112.25 46.1153 112.5 46.0953C112.76 46.0753 112.93 46.0453 113.02 45.9353C113.1 45.8453 113.14 45.7953 113.19 45.7953C113.23 45.7953 113.27 45.8153 113.27 45.8853C113.27 45.9553 113.23 46.1253 113.18 46.6853C113.17 46.9053 113.14 47.3353 113.14 47.4153C113.14 47.5053 113.14 47.6253 113.04 47.6253C112.96 47.6253 112.94 47.5853 112.94 47.5253C112.93 47.4153 112.93 47.2753 112.9 47.1353C112.85 46.9153 112.69 46.7553 112.29 46.7053C112.08 46.6853 111 46.6753 110.74 46.6753C110.69 46.6753 110.68 46.7153 110.68 46.7853V47.6453C110.68 48.0153 110.67 49.0253 110.68 49.3353C110.7 50.0853 110.88 50.2553 111.99 50.2553C112.27 50.2553 112.73 50.2553 113.02 50.1253C113.3 49.9953 113.43 49.7653 113.51 49.3153C113.53 49.1953 113.55 49.1553 113.63 49.1553C113.72 49.1553 113.72 49.2453 113.72 49.3553C113.72 49.6053 113.63 50.3453 113.58 50.5653C113.5 50.8453 113.41 50.8453 112.99 50.8453C112.17 50.8453 111.57 50.8253 111.1 50.8153C110.63 50.7953 110.29 50.7853 109.96 50.7853C109.84 50.7853 109.6 50.7853 109.34 50.7953C109.09 50.7953 108.81 50.8153 108.59 50.8153C108.45 50.8153 108.37 50.7853 108.37 50.7053C108.37 50.6553 108.41 50.6153 108.54 50.6153C108.7 50.6153 108.84 50.5953 108.93 50.5753C109.15 50.5353 109.2 50.2953 109.25 49.9753C109.3 49.5153 109.3 48.6553 109.3 47.6453V45.7253L109.32 45.6953Z" fill="#003D78"/>
<path fill-rule="evenodd" clip-rule="evenodd" d="M117.64 45.6952C117.64 44.0352 117.64 43.7252 117.62 43.3852C117.6 43.0152 117.51 42.8352 117.15 42.7652C117.06 42.7452 116.88 42.7352 116.72 42.7352C116.6 42.7352 116.53 42.7152 116.53 42.6352C116.53 42.5552 116.61 42.5352 116.77 42.5352C117.35 42.5352 118.04 42.5652 118.27 42.5652C118.64 42.5652 119.47 42.5352 119.81 42.5352C120.5 42.5352 121.23 42.6052 121.82 43.0052C122.13 43.2152 122.56 43.7652 122.56 44.5052C122.56 45.3152 122.22 46.0552 121.12 46.9552C122.09 48.1752 122.85 49.1452 123.49 49.8252C124.1 50.4552 124.55 50.5352 124.71 50.5652C124.83 50.5852 124.93 50.5952 125.02 50.5952C125.11 50.5952 125.15 50.6252 125.15 50.6852C125.15 50.7752 125.07 50.7952 124.94 50.7952H123.9C123.29 50.7952 123.02 50.7452 122.73 50.5852C122.26 50.3352 121.85 49.8252 121.23 48.9752C120.79 48.3752 120.29 47.6352 120.15 47.4652C120.1 47.3952 120.03 47.3852 119.95 47.3852L119 47.3652C118.95 47.3652 118.91 47.3852 118.91 47.4552V47.6052C118.91 48.6252 118.91 49.4852 118.96 49.9452C118.99 50.2652 119.06 50.5052 119.39 50.5452C119.55 50.5652 119.79 50.5852 119.92 50.5852C120.01 50.5852 120.05 50.6152 120.05 50.6752C120.05 50.7552 119.97 50.7852 119.83 50.7852C119.2 50.7852 118.39 50.7552 118.23 50.7552C118.02 50.7552 117.33 50.7852 116.9 50.7852C116.76 50.7852 116.68 50.7552 116.68 50.6752C116.68 50.6252 116.72 50.5852 116.86 50.5852C117.02 50.5852 117.15 50.5652 117.25 50.5452C117.47 50.5052 117.52 50.2652 117.57 49.9452C117.62 49.4852 117.62 48.6252 117.62 47.6152V45.6952H117.64ZM118.93 46.5652C118.93 46.6852 118.95 46.7252 119.03 46.7652C119.26 46.8452 119.59 46.8752 119.86 46.8752C120.3 46.8752 120.44 46.8352 120.63 46.6852C120.96 46.4452 121.27 45.9452 121.27 45.0452C121.27 43.4952 120.24 43.0452 119.6 43.0452C119.33 43.0452 119.13 43.0552 119.02 43.0852C118.94 43.1052 118.92 43.1552 118.92 43.2352V46.5552L118.93 46.5652Z" fill="#003D78"/>
<path fill-rule="evenodd" clip-rule="evenodd" d="M126.54 50.6584C126.37 50.5784 126.33 50.5284 126.33 50.2884C126.33 49.6884 126.37 49.0284 126.38 48.8584C126.39 48.6984 126.42 48.5784 126.51 48.5784C126.61 48.5784 126.62 48.6784 126.62 48.7684C126.62 48.9084 126.66 49.1384 126.72 49.3284C126.96 50.1384 127.6 50.4284 128.28 50.4284C129.26 50.4284 129.74 49.7584 129.74 49.1884C129.74 48.6584 129.58 48.1484 128.67 47.4384L128.17 47.0484C126.97 46.1084 126.55 45.3484 126.55 44.4584C126.55 43.2584 127.55 42.3984 129.07 42.3984C129.78 42.3984 130.24 42.5084 130.52 42.5884C130.62 42.6084 130.67 42.6384 130.67 42.7184C130.67 42.8584 130.63 43.1784 130.63 44.0284C130.63 44.2684 130.6 44.3584 130.51 44.3584C130.43 44.3584 130.4 44.2884 130.4 44.1584C130.4 44.0584 130.35 43.7184 130.12 43.4384C129.96 43.2284 129.64 42.8984 128.93 42.8984C128.12 42.8984 127.63 43.3684 127.63 44.0184C127.63 44.5184 127.88 44.8984 128.79 45.5884L129.1 45.8184C130.42 46.8084 130.89 47.5684 130.89 48.5984C130.89 49.2284 130.65 49.9884 129.86 50.4984C129.31 50.8484 128.7 50.9484 128.12 50.9484C127.49 50.9484 127 50.8684 126.53 50.6684L126.54 50.6584Z" fill="#003D78"/>
<path fill-rule="evenodd" clip-rule="evenodd" d="M134.92 45.697C134.92 44.037 134.92 43.727 134.9 43.387C134.88 43.017 134.77 42.827 134.53 42.777C134.41 42.747 134.27 42.737 134.14 42.737C134.03 42.737 133.96 42.717 133.96 42.627C133.96 42.557 134.05 42.537 134.22 42.537C134.63 42.537 135.32 42.567 135.64 42.567C135.91 42.567 136.56 42.537 136.97 42.537C137.11 42.537 137.2 42.557 137.2 42.627C137.2 42.717 137.14 42.737 137.03 42.737C136.92 42.737 136.83 42.747 136.7 42.767C136.41 42.817 136.32 43.007 136.3 43.387C136.28 43.737 136.28 44.037 136.28 45.697V47.617C136.28 48.677 136.28 49.537 136.32 50.007C136.35 50.307 136.43 50.497 136.76 50.537C136.91 50.557 137.15 50.577 137.32 50.577C137.44 50.577 137.5 50.607 137.5 50.667C137.5 50.747 137.41 50.777 137.29 50.777C136.57 50.777 135.88 50.747 135.59 50.747C135.34 50.747 134.65 50.777 134.21 50.777C134.07 50.777 133.99 50.747 133.99 50.667C133.99 50.617 134.03 50.577 134.16 50.577C134.32 50.577 134.46 50.557 134.55 50.537C134.77 50.497 134.83 50.307 134.87 49.987C134.92 49.527 134.92 48.667 134.92 47.607V45.687V45.697ZM134.98 41.087C134.98 40.817 135.15 40.457 135.59 40.457C135.94 40.457 136.21 40.687 136.21 41.047C136.21 41.407 135.96 41.707 135.59 41.707C135.15 41.707 134.98 41.367 134.98 41.097V41.087Z" fill="#003D78"/>
<path fill-rule="evenodd" clip-rule="evenodd" d="M142.72 43.1472L141.09 43.1872C140.46 43.2072 140.19 43.2672 140.03 43.5072C139.92 43.6672 139.87 43.8072 139.84 43.8872C139.82 43.9772 139.79 44.0172 139.72 44.0172C139.64 44.0172 139.62 43.9572 139.62 43.8372C139.62 43.6672 139.83 42.6672 139.85 42.5772C139.88 42.4372 139.92 42.3672 139.98 42.3672C140.07 42.3672 140.18 42.4772 140.45 42.4972C140.77 42.5272 141.18 42.5472 141.54 42.5472H145.86C146.21 42.5472 146.45 42.5172 146.61 42.4972C146.77 42.4672 146.86 42.4372 146.9 42.4372C146.98 42.4372 146.99 42.5072 146.99 42.6672C146.99 42.8972 146.96 43.6472 146.96 43.9372C146.95 44.0472 146.93 44.1072 146.86 44.1072C146.77 44.1072 146.75 44.0472 146.74 43.8872V43.7672C146.71 43.4872 146.41 43.1772 145.44 43.1572L144.06 43.1272V47.6072C144.06 48.6172 144.06 49.4772 144.11 49.9472C144.14 50.2572 144.21 50.4972 144.54 50.5372C144.69 50.5572 144.93 50.5772 145.1 50.5772C145.22 50.5772 145.28 50.6072 145.28 50.6672C145.28 50.7472 145.19 50.7772 145.07 50.7772C144.35 50.7772 143.66 50.7472 143.36 50.7472C143.11 50.7472 142.42 50.7772 141.98 50.7772C141.84 50.7772 141.76 50.7472 141.76 50.6672C141.76 50.6172 141.8 50.5772 141.93 50.5772C142.09 50.5772 142.22 50.5572 142.32 50.5372C142.54 50.4972 142.6 50.2572 142.64 49.9372C142.69 49.4772 142.69 48.6172 142.69 47.6072V43.1272L142.72 43.1472Z" fill="#003D78"/>
<path fill-rule="evenodd" clip-rule="evenodd" d="M150.44 45.6953C150.44 44.0353 150.44 43.7253 150.42 43.3853C150.4 43.0153 150.31 42.8353 149.95 42.7653C149.86 42.7453 149.68 42.7353 149.52 42.7353C149.4 42.7353 149.33 42.7153 149.33 42.6353C149.33 42.5553 149.41 42.5353 149.57 42.5353C149.86 42.5353 150.18 42.5453 150.45 42.5453C150.73 42.5553 150.99 42.5653 151.14 42.5653C151.49 42.5653 153.66 42.5653 153.87 42.5553C154.08 42.5353 154.25 42.5153 154.34 42.4853C154.39 42.4753 154.46 42.4453 154.51 42.4453C154.56 42.4453 154.58 42.4853 154.58 42.5453C154.58 42.6253 154.53 42.7553 154.49 43.2553C154.48 43.3653 154.46 43.8453 154.44 43.9753C154.43 44.0253 154.41 44.0953 154.33 44.0953C154.25 44.0953 154.23 44.0453 154.23 43.9453C154.23 43.8653 154.22 43.6853 154.16 43.5553C154.08 43.3553 153.98 43.2253 153.43 43.1653C153.24 43.1453 152.1 43.1253 151.88 43.1253C151.83 43.1253 151.8 43.1553 151.8 43.2353V45.9953C151.8 46.0753 151.81 46.1153 151.88 46.1153C152.12 46.1153 153.38 46.1153 153.63 46.0953C153.89 46.0753 154.06 46.0453 154.15 45.9353C154.23 45.8453 154.27 45.7953 154.32 45.7953C154.36 45.7953 154.4 45.8153 154.4 45.8853C154.4 45.9553 154.36 46.1253 154.31 46.6853C154.31 46.9053 154.27 47.3353 154.27 47.4153C154.27 47.5053 154.27 47.6253 154.17 47.6253C154.09 47.6253 154.07 47.5853 154.07 47.5253C154.06 47.4153 154.06 47.2753 154.03 47.1353C153.98 46.9153 153.82 46.7553 153.42 46.7053C153.21 46.6853 152.13 46.6753 151.87 46.6753C151.82 46.6753 151.81 46.7153 151.81 46.7853V47.6453C151.81 48.0153 151.8 49.0253 151.81 49.3353C151.83 50.0853 152.01 50.2553 153.12 50.2553C153.4 50.2553 153.86 50.2553 154.15 50.1253C154.43 49.9953 154.56 49.7653 154.64 49.3153C154.66 49.1953 154.68 49.1553 154.76 49.1553C154.85 49.1553 154.85 49.2453 154.85 49.3553C154.85 49.6053 154.76 50.3453 154.71 50.5653C154.63 50.8453 154.54 50.8453 154.12 50.8453C153.3 50.8453 152.7 50.8253 152.23 50.8153C151.76 50.7953 151.42 50.7853 151.09 50.7853C150.97 50.7853 150.73 50.7853 150.47 50.7953C150.22 50.7953 149.94 50.8153 149.72 50.8153C149.58 50.8153 149.5 50.7853 149.5 50.7053C149.5 50.6553 149.54 50.6153 149.68 50.6153C149.84 50.6153 149.97 50.5953 150.07 50.5753C150.29 50.5353 150.34 50.2953 150.39 49.9753C150.44 49.5153 150.44 48.6553 150.44 47.6453V45.7253V45.6953Z" fill="#003D78"/>
<path fill-rule="evenodd" clip-rule="evenodd" d="M158.16 50.6584C157.99 50.5784 157.95 50.5284 157.95 50.2884C157.95 49.6884 157.99 49.0284 158 48.8584C158.01 48.6984 158.04 48.5784 158.13 48.5784C158.23 48.5784 158.24 48.6784 158.24 48.7684C158.24 48.9084 158.28 49.1384 158.34 49.3284C158.58 50.1384 159.22 50.4284 159.9 50.4284C160.88 50.4284 161.36 49.7584 161.36 49.1884C161.36 48.6584 161.2 48.1484 160.29 47.4384L159.79 47.0484C158.59 46.1084 158.17 45.3484 158.17 44.4584C158.17 43.2584 159.17 42.3984 160.69 42.3984C161.4 42.3984 161.86 42.5084 162.14 42.5884C162.24 42.6084 162.29 42.6384 162.29 42.7184C162.29 42.8584 162.25 43.1784 162.25 44.0284C162.25 44.2684 162.22 44.3584 162.13 44.3584C162.05 44.3584 162.02 44.2884 162.02 44.1584C162.02 44.0584 161.97 43.7184 161.74 43.4384C161.58 43.2284 161.26 42.8984 160.55 42.8984C159.74 42.8984 159.25 43.3684 159.25 44.0184C159.25 44.5184 159.5 44.8984 160.41 45.5884L160.72 45.8184C162.04 46.8084 162.51 47.5684 162.51 48.5984C162.51 49.2284 162.27 49.9884 161.48 50.4984C160.93 50.8484 160.32 50.9484 159.74 50.9484C159.11 50.9484 158.62 50.8684 158.15 50.6684L158.16 50.6584Z" fill="#003D78"/>
<path fill-rule="evenodd" clip-rule="evenodd" d="M166.54 45.697C166.54 44.037 166.54 43.727 166.52 43.387C166.5 43.017 166.39 42.827 166.15 42.777C166.03 42.747 165.89 42.737 165.76 42.737C165.65 42.737 165.59 42.717 165.59 42.627C165.59 42.557 165.68 42.537 165.85 42.537C166.26 42.537 166.95 42.567 167.27 42.567C167.54 42.567 168.19 42.537 168.6 42.537C168.74 42.537 168.83 42.557 168.83 42.627C168.83 42.717 168.77 42.737 168.66 42.737C168.55 42.737 168.46 42.747 168.33 42.767C168.04 42.817 167.95 43.007 167.93 43.387C167.91 43.737 167.91 44.037 167.91 45.697V47.617C167.91 48.677 167.91 49.537 167.95 50.007C167.98 50.307 168.06 50.497 168.39 50.537C168.54 50.557 168.78 50.577 168.95 50.577C169.07 50.577 169.12 50.607 169.12 50.667C169.12 50.747 169.03 50.777 168.91 50.777C168.19 50.777 167.5 50.747 167.21 50.747C166.96 50.747 166.27 50.777 165.83 50.777C165.69 50.777 165.61 50.747 165.61 50.667C165.61 50.617 165.65 50.577 165.79 50.577C165.95 50.577 166.08 50.557 166.18 50.537C166.4 50.497 166.46 50.307 166.5 49.987C166.55 49.527 166.55 48.667 166.55 47.607V45.687L166.54 45.697ZM166.6 41.087C166.6 40.817 166.77 40.457 167.21 40.457C167.56 40.457 167.83 40.687 167.83 41.047C167.83 41.407 167.58 41.707 167.21 41.707C166.77 41.707 166.6 41.367 166.6 41.097V41.087Z" fill="#003D78"/>
</svg>
